<svg width="1431" height="348" viewBox="0 0 1431 348" fill="none" xmlns="http://www.w3.org/2000/svg">
<path d="M4.68069 213.472L0.731445 210.799L44.5624 183.6L103.673 203.191L184.258 229.6L317.444 95.4536H454.635L592.328 141.6L728.018 94.6536L869.716 97.0556L1005.91 25.2L1145.6 7.85364L1284.29 7.85367L1421.04 27.8722V30.5455L1284.29 13.2H1145.6L1005.91 30.5455L869.716 102.4L728.018 100L592.328 146.946L454.635 100.8H317.444L184.258 234.944L105.648 207.2L47.5243 186.941L4.68069 213.472Z" fill="#D1DCED"/>
<path d="M453.634 90.4C459.165 90.4 463.648 93.9817 463.648 98.4C463.648 102.818 459.165 106.4 453.634 106.4C448.104 106.4 443.62 102.818 443.62 98.4C443.62 93.9817 448.104 90.4 453.634 90.4Z" fill="#D1DCED"/>
<path d="M315.441 90.4C320.971 90.4 325.455 93.9817 325.455 98.4C325.455 102.818 320.971 106.4 315.441 106.4C309.91 106.4 305.427 102.818 305.427 98.4C305.427 93.9817 309.91 90.4 315.441 90.4Z" fill="#D1DCED"/>
<path d="M181.253 223.2C186.784 223.2 191.267 226.782 191.267 231.2C191.267 235.618 186.784 239.2 181.253 239.2C175.723 239.2 171.239 235.618 171.239 231.2C171.239 226.782 175.723 223.2 181.253 223.2Z" fill="#D1DCED"/>
<path d="M45.0631 179.2C50.5936 179.2 55.0771 182.782 55.0771 187.2C55.0771 191.618 50.5936 195.2 45.0631 195.2C39.5325 195.2 35.0491 191.618 35.0491 187.2C35.0491 182.782 39.5325 179.2 45.0631 179.2Z" fill="#D1DCED"/>
<path d="M592.829 134.284C598.359 134.284 602.843 137.865 602.843 142.284C602.843 146.702 598.359 150.284 592.829 150.284C587.298 150.284 582.814 146.702 582.814 142.284C582.814 137.865 587.298 134.284 592.829 134.284Z" fill="#D1DCED"/>
<path d="M731.022 90.4C736.552 90.4 741.036 93.9817 741.036 98.4C741.036 102.818 736.552 106.4 731.022 106.4C725.491 106.4 721.008 102.818 721.008 98.4C721.008 93.9817 725.491 90.4 731.022 90.4Z" fill="#D1DCED"/>
<path d="M868.213 90.4C873.744 90.4 878.227 93.9817 878.227 98.4C878.227 102.818 873.744 106.4 868.213 106.4C862.683 106.4 858.199 102.818 858.199 98.4C858.199 93.9817 862.683 90.4 868.213 90.4Z" fill="#D1DCED"/>
<path d="M1004.4 20.8C1009.93 20.8 1014.42 24.3818 1014.42 28.8C1014.42 33.2183 1009.93 36.8 1004.4 36.8C998.873 36.8 994.39 33.2183 994.39 28.8C994.39 24.3818 998.873 20.8 1004.4 20.8Z" fill="#D1DCED"/>
<path d="M1141.6 0C1147.13 0 1151.61 3.58172 1151.61 7.99999C1151.61 12.4183 1147.13 16 1141.6 16C1136.06 16 1131.58 12.4183 1131.58 7.99999C1131.58 3.58172 1136.06 0 1141.6 0Z" fill="#D1DCED"/>
<path d="M1278.79 0C1284.32 0 1288.8 3.58172 1288.8 7.99999C1288.8 12.4183 1284.32 16 1278.79 16C1273.26 16 1268.77 12.4183 1268.77 7.99999C1268.77 3.58172 1273.26 0 1278.79 0Z" fill="#D1DCED"/>
<path d="M1420.99 20.8C1426.52 20.8 1431 24.3818 1431 28.8C1431 33.2183 1426.52 36.8 1420.99 36.8C1415.46 36.8 1410.97 33.2183 1410.97 28.8C1410.97 24.3818 1415.46 20.8 1420.99 20.8Z" fill="#D1DCED"/>
<path d="M5.65439 329.686L1.72729 327.628L43.2322 296.8L182.205 343.2L315.286 210.284L448.857 166L584.884 257.484L716.982 210.284L855.464 258L1126.54 79.8839L1400.55 172.684L1427.07 151.142L1431 153.2L1400.55 176.8L1126.54 83.9999L855.464 262.115L716.982 214.4L584.884 261.6L448.857 170.116L315.286 214.4L182.205 347.315L45.1957 299.886L5.65439 329.686Z" fill="#D1DCED"/>
<path d="M1398.59 163.2C1404.01 163.2 1408.41 166.782 1408.41 171.2C1408.41 175.618 1404.01 179.2 1398.59 179.2C1393.17 179.2 1388.77 175.618 1388.77 171.2C1388.77 166.782 1393.17 163.2 1398.59 163.2Z" fill="#D1DCED"/>
<path d="M1126.54 75.2C1131.96 75.2 1136.36 78.7817 1136.36 83.1999C1136.36 87.6182 1131.96 91.2 1126.54 91.2C1121.11 91.2 1116.71 87.6182 1116.71 83.1999C1116.71 78.7817 1121.11 75.2 1126.54 75.2Z" fill="#D1DCED"/>
<path d="M856.446 251.2C861.871 251.2 866.268 254.782 866.268 259.2C866.268 263.618 861.871 267.2 856.446 267.2C851.022 267.2 846.625 263.618 846.625 259.2C846.625 254.782 851.022 251.2 856.446 251.2Z" fill="#D1DCED"/>
<path d="M717.964 205.6C723.388 205.6 727.786 209.182 727.786 213.6C727.786 218.018 723.388 221.6 717.964 221.6C712.54 221.6 708.143 218.018 708.143 213.6C708.143 209.182 712.54 205.6 717.964 205.6Z" fill="#D1DCED"/>
<path d="M446.893 160.8C452.317 160.8 456.714 164.382 456.714 168.8C456.714 173.218 452.317 176.8 446.893 176.8C441.468 176.8 437.071 173.218 437.071 168.8C437.071 164.382 441.468 160.8 446.893 160.8Z" fill="#D1DCED"/>
<path d="M584.393 251.2C589.817 251.2 594.214 254.782 594.214 259.2C594.214 263.618 589.817 267.2 584.393 267.2C578.968 267.2 574.571 263.618 574.571 259.2C574.571 254.782 578.968 251.2 584.393 251.2Z" fill="#D1DCED"/>
<path d="M316.268 205.6C321.692 205.6 326.089 209.182 326.089 213.6C326.089 218.018 321.692 221.6 316.268 221.6C310.843 221.6 306.446 218.018 306.446 213.6C306.446 209.182 310.843 205.6 316.268 205.6Z" fill="#D1DCED"/>
<path d="M45.1964 292.8C50.6206 292.8 55.0179 296.382 55.0179 300.8C55.0179 305.218 50.6206 308.8 45.1964 308.8C39.7722 308.8 35.375 305.218 35.375 300.8C35.375 296.382 39.7722 292.8 45.1964 292.8Z" fill="#D1DCED"/>
</svg>
